<svg width="715" height="603" viewBox="0 0 715 603" fill="none" xmlns="http://www.w3.org/2000/svg">
<path d="M690 540.333C691.151 540.333 692.083 541.266 692.083 542.417V554.917H704.583C705.734 554.917 706.667 555.849 706.667 557C706.667 558.151 705.734 559.083 704.583 559.083H692.083V571.583C692.083 572.734 691.151 573.667 690 573.667C688.849 573.667 687.917 572.734 687.917 571.583V559.083H675.417C674.266 559.083 673.333 558.151 673.333 557C673.333 555.849 674.266 554.917 675.417 554.917H687.917V542.417C687.917 541.266 688.849 540.333 690 540.333Z" fill="#E7E7E7"/>
<path d="M58 47L81.2781 71.2247L95.7483 53.6067L113.05 71.2247L131.924 53.6067L153 75" stroke="#E7E7E7" stroke-width="4"/>
<path d="M32.5135 560.145L33.8715 502.138L83.4287 532.318L32.5135 560.145Z" stroke="#E7E7E7" stroke-width="3" stroke-linejoin="round"/>
<path d="M37.0689 582.854L38.508 521.383L91.0239 553.364L37.0689 582.854Z" stroke="#E7E7E7" stroke-linejoin="round"/>
<circle cx="671" cy="20" r="18.5" stroke="white" stroke-width="3"/>
<circle cx="682" cy="40" r="19.5" stroke="white"/>
</svg>
